<?xml version="1.0" encoding="utf-8"?>
<!-- Generator: Adobe Illustrator 28.0.0, SVG Export Plug-In . SVG Version: 6.00 Build 0)  -->
<svg version="1.1" id="Layer_1" xmlns="http://www.w3.org/2000/svg" xmlns:xlink="http://www.w3.org/1999/xlink" x="0px" y="0px"
	 viewBox="0 0 934.09 295.32" style="enable-background:new 0 0 934.09 295.32;" xml:space="preserve">
<style type="text/css">
	.st0{fill:#FFFFFF;}
	.st1{fill:#EC1855;}
</style>
<g>
	<path class="st0" d="M10.87,289.92c0-6.2,2.27-10.25,8.29-15.78c5.34-4.85,7.37-7.49,7.37-11.72c0-3.5-1.53-5.1-4.42-5.1
		c-3.01,0-4.6,1.78-4.6,5.1v3.74h-6.57v-3.56c0-6.94,3.74-11.48,11.3-11.48c7.61,0,11.29,4.42,11.29,11.11
		c0,5.71-2.76,9.82-9.82,16.21c-4.54,4.11-5.89,6.32-5.89,9.45v0.61h15.04v6.2H10.87V289.92z M66.97,283.78v-21.12
		c0-7.37,4.11-11.54,11.54-11.54s11.48,4.17,11.48,11.54v21.12c0,7.31-4.05,11.54-11.48,11.54S66.97,291.09,66.97,283.78z
		 M82.99,284.15V262.3c0-3.38-1.6-4.97-4.48-4.97s-4.54,1.6-4.54,4.97v21.85c0,3.31,1.66,4.97,4.54,4.97S82.99,287.46,82.99,284.15z
		 M123.75,289.92c0-6.2,2.27-10.25,8.29-15.78c5.34-4.85,7.37-7.49,7.37-11.72c0-3.5-1.53-5.1-4.42-5.1c-3.01,0-4.6,1.78-4.6,5.1
		v3.74h-6.57v-3.56c0-6.94,3.74-11.48,11.3-11.48c7.61,0,11.29,4.42,11.29,11.11c0,5.71-2.76,9.82-9.82,16.21
		c-4.54,4.11-5.89,6.32-5.89,9.45v0.61h15.04v6.2h-21.98V289.92z M192.37,286.91h-14.98v-6.14l14.36-29.04h7.61v28.97h3.68v6.2
		h-3.68v7.8h-7V286.91z M192.37,280.71v-17.86l-8.59,17.86H192.37z M276.15,283.97v-21.48c0-7.18,3.99-11.36,11.17-11.36
		c7.24,0,11.11,4.17,11.11,11.36v3.81h-6.57v-4.11c0-3.31-1.66-4.97-4.36-4.97c-2.7,0-4.36,1.66-4.36,4.97v22.1
		c0,3.31,1.66,4.97,4.36,4.97c2.7,0,4.36-1.66,4.36-4.97v-5.4h6.57v5.09c0,7.18-3.87,11.36-11.11,11.36
		C280.14,295.32,276.15,291.15,276.15,283.97z M332.87,251.74h7v17.74h9.27v-17.74h7v42.97h-7v-19.03h-9.27v19.03h-7V251.74z
		 M407.2,286.36h-9.45l-1.47,8.35h-6.51l8.23-42.97h9.45l8.29,42.97h-7.12L407.2,286.36z M406.16,280.28l-3.68-21.3l-3.68,21.3
		H406.16z M449.3,251.74h9.88l5.77,31.55l5.71-31.55h9.88v42.97h-6.63v-33.27l-6.32,33.27h-5.83l-6.32-33.27v33.27h-6.14V251.74z
		 M516.15,251.74h11.11c7.67,0,11.29,3.68,11.29,11.17v3.19c0,7.49-3.62,11.17-11.29,11.17h-4.11v17.43h-7V251.74z M527.26,271.14
		c3.01,0,4.3-1.35,4.3-4.85v-3.62c0-3.44-1.29-4.73-4.3-4.73h-4.11v13.2H527.26z M572.61,251.74h7v42.97h-7V251.74z M614.66,283.78
		v-21.12c0-7.37,4.11-11.54,11.48-11.54c7.43,0,11.54,4.17,11.54,11.54v21.12c0,7.31-4.11,11.54-11.54,11.54
		C618.77,295.32,614.66,291.09,614.66,283.78z M630.68,284.15V262.3c0-3.38-1.66-4.97-4.54-4.97s-4.48,1.6-4.48,4.97v21.85
		c0,3.31,1.6,4.97,4.48,4.97S630.68,287.46,630.68,284.15z M672.66,251.74h8.72l8.72,26.95v-26.95h6.32v42.97h-7.12l-10.37-32.17
		v32.17h-6.26V251.74z M730.73,284.15V282h6.57v2.39c0,3.07,1.6,4.85,4.54,4.85c2.7,0,4.48-1.66,4.48-4.91
		c0-3.74-1.53-5.46-6.81-8.9c-6.63-4.3-8.66-7.86-8.66-13.26c0-6.75,3.93-11.05,11.17-11.05c7.3,0,10.99,4.24,10.99,11.17v1.47
		h-6.57v-1.66c0-3.13-1.47-4.91-4.36-4.91c-2.7,0-4.3,1.66-4.3,4.73c0,3.38,1.66,5.1,6.94,8.47c6.75,4.3,8.59,7.92,8.59,13.63
		c0,6.94-4.05,11.29-11.42,11.29S730.73,291.02,730.73,284.15z M787.57,251.74h7v17.74h9.27v-17.74h7v42.97h-7v-19.03h-9.27v19.03
		h-7V251.74z M846.43,251.74h7v42.97h-7V251.74z M889.03,251.74h11.11c7.67,0,11.29,3.68,11.29,11.17v3.19
		c0,7.49-3.62,11.17-11.29,11.17h-4.11v17.43h-7V251.74z M900.14,271.14c3.01,0,4.3-1.35,4.3-4.85v-3.62c0-3.44-1.29-4.73-4.3-4.73
		h-4.11v13.2H900.14z"/>
	<g>
		<path class="st0" d="M96.49,3.11H46.38L0,220.99h34.86l19.92-93.37h12.45c11.52,0,16.5,2.8,16.5,12.45
			c0,3.42-0.62,7.78-1.87,13.07l-8.4,39.84c-2.18,10.27-2.8,15.87-2.8,19.92c0,2.8,0.31,5.29,0.62,8.09h33.93
			c-0.31-1.87-0.62-3.73-0.62-5.6c0-5.29,1.56-11.83,3.11-19.61l8.09-38.28c1.56-6.54,2.18-12.45,2.18-18.05
			c0-13.69-4.98-23.34-15.87-27.08v-0.31c18.05-4.67,27.08-18.67,32.37-44.2l2.18-10.58c1.25-6.22,1.87-11.52,1.87-16.81
			C138.51,15.56,122.94,3.11,96.49,3.11z M102.09,55.4l-3.74,16.81C94,91.2,84.35,96.49,71.59,96.49H61.32L74.7,34.24h15.56
			c9.03,0,13.07,3.11,13.07,11.2C103.33,48.24,103.02,51.36,102.09,55.4z M132.59,181.77c0-4.98,0.62-10.27,1.87-16.18l25.21-117.65
			C166.2,17.43,184.88,0,213.2,0c32.37,0,48.55,15.87,48.55,42.02c0,4.98-0.62,10.89-1.87,16.5l-3.74,18.05h-32.99l4.98-23.65
			c0.62-2.49,0.93-4.98,0.93-7.16c0-9.96-6.54-14.63-16.5-14.63c-9.03,0-15.56,5.6-18.36,18.36l-26.15,121.7
			c-0.62,2.49-0.93,4.98-0.93,6.85c0,10.58,6.85,14.94,16.5,14.94c9.03,0,16.5-5.29,18.99-17.74l6.85-33.93h32.68l-7.16,34.86
			c-6.54,31.44-24.9,47.93-53.22,47.93C149.09,224.1,132.59,208.23,132.59,181.77z"/>
		<path class="st0" d="M418.15,62.56c1.28-6.09,1.9-11.53,1.9-16.63c0-13.49-4.41-24.57-12.74-32.03C399,6.47,387.16,2.7,372.12,2.7
			h-47.61c-3.07,0-5.72,2.15-6.36,5.15l-43.79,205.71c-0.41,1.92,0.07,3.92,1.31,5.44c1.23,1.52,3.09,2.41,5.05,2.41h52.9
			c8.71,0,16.61-1.17,23.48-3.47c7.01-2.35,13.21-5.95,18.44-10.72c9.92-9.04,16.64-22.32,20.56-40.62L418.15,62.56z M333.62,214.9
			h-52.9L324.51,9.2h47.61c27.04,0,41.44,13.22,41.44,36.73c0,4.7-0.59,9.7-1.76,15.28l-22.04,104.03
			C382.7,198.15,365.95,214.9,333.62,214.9z M368,38.58h-16.75L320.1,185.52h14.4c10.29,0,18.81-6.47,22.04-21.16l22.92-106.97
			c0.59-3.23,0.88-5.88,0.88-7.93C380.35,41.23,376.23,38.58,368,38.58z M373.09,56.13L350.19,163
			c-2.34,10.62-7.62,16.02-15.69,16.02h-6.38l28.39-133.94H368c3.87,0,4.95,0.73,5.13,0.87c0.33,0.27,0.71,1.35,0.71,3.5
			C373.85,51.09,373.59,53.34,373.09,56.13z M498.48,49.16c0-7.64-3.82-10.58-12.34-10.58h-14.69l-12.64,58.77h9.7
			c12.05,0,21.16-5,25.27-22.92l3.53-15.87C498.18,54.75,498.48,51.81,498.48,49.16z M490.97,57.11c0,0.02-0.01,0.03-0.01,0.05
			L487.44,73c-3.42,14.87-9.78,17.86-18.93,17.86h-1.65l9.84-45.78h9.44c3.91,0,5.02,0.76,5.2,0.91c0.3,0.25,0.65,1.23,0.65,3.17
			C491.98,51.6,491.66,54.12,490.97,57.11z M816.73,2.7L816.73,2.7H716.22c-1.98,0-3.79,0.9-4.99,2.35
			c-1.23-1.48-3.06-2.35-4.99-2.35h-85.52c-3.07,0-5.72,2.15-6.36,5.15l-43.79,205.71c-0.41,1.92,0.07,3.92,1.31,5.44
			c1.23,1.52,3.09,2.41,5.05,2.41h33.21c3.07,0,5.72-2.14,6.36-5.14l18-84.49h35.59c3.07,0,5.73-2.15,6.36-5.16l6.13-29.18
			c0.12-0.49,0.18-1.01,0.18-1.54c0-3.59-2.91-6.5-6.5-6.5h0h-32.84l9.32-44.31h47.03c1.98,0,3.79-0.9,4.99-2.35
			c1.23,1.48,3.06,2.35,4.99,2.35h25.78l-35.66,168.48c-0.41,1.92,0.08,3.91,1.31,5.44c1.23,1.52,3.09,2.41,5.05,2.41h32.91
			c3.07,0,5.72-2.15,6.36-5.15l36.23-171.17h28.53c3.05,0,5.69-2.12,6.35-5.1l6.42-29.18c0.13-0.51,0.2-1.05,0.2-1.6
			C823.22,5.61,820.32,2.7,816.73,2.7z M647.46,38.58l-12.05,57.3h40.85l-6.17,29.39h-40.85l-19.1,89.63h-33.21L620.72,9.2h85.52
			l-6.46,29.39H647.46z M810.26,38.58h-33.8L739.14,214.9h-32.91l37.32-176.32h-33.8l6.47-29.39h100.5L810.26,38.58z M601.68,5.11
			c-1.23-1.52-3.09-2.41-5.05-2.41h-32.91c-3.07,0-5.72,2.15-6.36,5.15l-43.79,205.71c-0.41,1.92,0.07,3.92,1.31,5.44
			c1.23,1.52,3.09,2.41,5.05,2.41h32.91c3.07,0,5.72-2.15,6.36-5.15l43.79-205.71C603.39,8.63,602.91,6.63,601.68,5.11z
			 M552.84,214.9h-32.91L563.71,9.2h32.91L552.84,214.9z M518.79,137.91c0-7.71-1.51-14.28-4.48-19.52
			c-1.04-1.83-2.24-3.48-3.6-4.97c4.54-2.79,8.41-6.47,11.7-11.09c5.26-7.4,9.02-17.15,11.83-30.69l2.06-10
			c1.3-6.48,1.9-11.93,1.9-17.18c0-26.54-16.83-41.76-46.17-41.76H444.7c-3.07,0-5.72,2.15-6.36,5.15l-43.79,205.71
			c-0.41,1.92,0.07,3.92,1.31,5.44c1.23,1.52,3.09,2.41,5.05,2.41h32.91c3.07,0,5.72-2.14,6.36-5.14l17.71-83.02h6.5
			c5.5,0,7.44,0.79,8.1,1.26c0.81,0.57,0.97,2.49,0.97,4c0,2.72-0.54,6.37-1.59,10.85c-0.01,0.05-0.02,0.1-0.03,0.15l-7.94,37.62
			c-1.93,9.08-2.78,15.29-2.78,20.15c0,2.77,0.27,5.14,0.55,7.66l0.08,0.7c0.37,3.29,3.15,5.78,6.46,5.78h32.03
			c1.91,0,3.72-0.84,4.96-2.3c1.23-1.46,1.77-3.38,1.45-5.27c-0.26-1.54-0.5-3-0.5-4.22c0-3.51,0.97-8.22,2.09-13.68
			c0.23-1.14,0.48-2.32,0.72-3.53l7.62-36.03C518.06,150.1,518.79,144.06,518.79,137.91z M510.23,154.96l-7.64,36.14
			c-1.47,7.35-2.94,13.52-2.94,18.51c0,1.76,0.29,3.53,0.59,5.29h-32.03c-0.29-2.64-0.59-5-0.59-7.64c0-3.82,0.59-9.11,2.64-18.81
			l7.94-37.62c1.18-5,1.76-9.11,1.76-12.34c0-9.11-4.7-11.75-15.58-11.75h-11.75l-18.81,88.16h-32.91L444.7,9.2h47.31
			c24.98,0,39.67,11.75,39.67,35.26c0,5-0.59,9.99-1.76,15.87l-2.06,9.99c-5,24.1-13.52,37.32-30.56,41.73v0.29
			c10.28,3.53,14.99,12.64,14.99,25.57C512.29,143.2,511.7,148.78,510.23,154.96z"/>
		<path class="st1" d="M781.9,199.45h15.46l-3.23,15.46h-15.46L781.9,199.45z M809.44,196.92c0-2.39,0.28-4.92,0.84-7.59l15.6-72.79
			h15.74l-16.16,75.6c-0.28,1.26-0.42,2.39-0.42,3.37c0,5.06,2.95,6.74,7.73,6.74c4.22,0,7.03-2.25,8.29-8.57l16.44-77.15h15.18
			l-16.58,77.71c-2.95,14.19-11.24,22.06-24.31,22.06C818.3,216.31,809.44,209.84,809.44,196.92z M907.53,153.49l5.62,61.41h-15.6
			l-3.79-42.3l-9.41,13.07l-6.18,29.23h-15.74l20.94-98.37h15.74l-8.57,40.33l26.7-40.33h16.86L907.53,153.49z"/>
	</g>
</g>
</svg>
