<?xml version="1.0" encoding="UTF-8"?>
<svg id="Layer_1" xmlns="http://www.w3.org/2000/svg" xmlns:xlink="http://www.w3.org/1999/xlink" viewBox="0 0 200.22 100.35">
  <defs>
    <style>
      .cls-1 {
        fill: none;
      }

      .cls-2 {
        fill: #f20c4e;
        stroke: red;
      }

      .cls-2, .cls-3, .cls-4 {
        fill-rule: evenodd;
      }

      .cls-2, .cls-4 {
        stroke-miterlimit: 2.61;
        stroke-width: .22px;
      }

      .cls-3 {
        fill: #27272a;
      }

      .cls-4 {
        fill: #fff;
        stroke: #fff;
      }

      .cls-5 {
        clip-path: url(#clippath);
      }
    </style>
    <clipPath id="clippath">
      <circle class="cls-1" cx="100.11" cy="50.18" r="50"/>
    </clipPath>
  </defs>
  <g class="cls-5">
    <g>
      <path class="cls-2" d="M200.1,40.4l-.12,19.77-90-.15v40.15h-19.94v-40.18L.11,59.85v-19.77s89.94.15,89.94.15V.18h19.94v40.08l90.12.15h0ZM.11,8.18l50.64,25h15.8L.11.18v8H.11ZM.11,100.17h15.18l66.36-33.41h-15.02L.11,100.17H.11ZM200.11,100.17v-7.45s-51.62-26.12-51.62-26.12h-15.36l66.98,33.58h0ZM184.59.18l-66.66,33.52h15.62L200.1.18h-15.51Z"/>
      <path class="cls-3" d="M.11,11.44l44.3,22.22H.11V11.44H.11ZM.11,88.79l44.3-22.22H.11v22.22H.11ZM200.1,11.28l-44.3,22.22h44.3V11.28h0ZM200.1,89.1v-22.22h-44.3l44.3,22.22h0ZM177.59.18h-60.76v30.8L177.59.18h0ZM22.57.18l60.76,30.8V.18H22.57ZM22.55,100.17h60.76v-30.8l-60.76,30.8h0ZM177.58,100.17l-60.76-30.8v30.8h60.76Z"/>
      <path class="cls-4" d="M.11,40.08s0-6.42,0-6.42h44.3L.11,11.44v-3.26l50.64,25h15.8L.11.18h22.46l60.76,30.8V.18h6.72v39.9H.11ZM109.99.18v40.08l90.12.15v-6.9s-44.3,0-44.3,0l44.3-22.22V.18l-66.55,33.52h-15.62L184.59.18h-7l-60.76,30.8V.18s-6.85,0-6.85,0h0ZM.11,59.85v6.72h44.3L.11,88.79v11.38l66.52-33.41h15.02L15.29,100.17h7.25l60.76-30.8v30.8h6.74v-40.32H.11ZM199.97,60.18l-89.99-.15v40.15h6.84v-30.8l60.76,30.8h22.53s-66.99-33.58-66.99-33.58h15.36l51.62,26.13v-3.62l-44.3-22.22h44.15l.02-6.7h0Z"/>
    </g>
  </g>
</svg>