<?xml version="1.0" encoding="UTF-8"?>
<svg xmlns="http://www.w3.org/2000/svg" version="1.1" viewBox="0 0 683 373.7">
  <defs>
    <style>
      .cls-1 {
        fill: #f7f5ed;
      }
    </style>
  </defs>
  <!-- Generator: Adobe Illustrator 28.7.4, SVG Export Plug-In . SVG Version: 1.2.0 Build 166)  -->
  <g>
    <g id="Layer_1">
      <path class="cls-1" d="M182.4,122.4c3.1-2.2,8.1-1.7,10.4-4.8-3.5-3.5-8.4-3-13.8-1.8-12,3.6-24.4,11.1-38,4.9-1.7-1.1-4.2-3.3-5.2-2.3.4,1.4.9,2.1.9,2.1,2.3,5.2,2,10,1.1,15.5-7.9,17.6-18.9,51.7-19.4,52.8-.8,1.9-2,4.9-3.6.6-1.6-4.6-22.7-57.2-23.6-59.1-1.2-4.7-.3-10-.3-10,.4-3.1,1.6-4.4.5-6.8-11.3,8-27,6.8-40,2.2-6.8-3.1-14-4.4-21.8-2.8-1.7.3-3.4.7-4.9,1.4-7.7,3.2-13.1,10.7-13.1,19.7s9.9,22.4,22.1,22.8c21.7-.2,20.9-29.2,3.4-30.7-.8,0-1.6,0-2.7,0-4.5.1-8.1,3.7-8.1,8.3s3.8,8.7,8.6,8.8c1.9.2,3.8-1.6,4.4,0,1,4.9-8.6,9.2-15.8-.9-2.8-4.4-3.4-10,.5-15,3.5-4,7.8-5.6,12.6-5.8,9-.2,14.3,5.8,19.1,12.5,2.6,3.6,5.1,7.4,8,10.4,1.7,2.2,2.4,2.8,2.4,4.6,1.3,23.3.5,49.1.8,72.2v1.1c-46.8,12-80.8,47.5-41,98.3,0,0,.8.9,1.6-.1.3-.4.5-.6,0-1.4-31.6-50.4-2.1-80.5,39.4-89.6,0,3.7,0,8.5,0,13.9-34.7,15.6-52.7,55.2-.5,81.8-2.3,11.3-11.3,19.8-16.6,23-4.3,2.9-9.1-1.1-9.3,4,.6,2.5,1.3,2.8,4.7,2.8,14.5-.5,20.7-5.4,27.4-11.6,2.6-2.2,2.8-3.3,4.8-5.5,9.2,2.1,23.3.4,29.2-2.4,2.1-.8,3.3-3.4.6-4-10.9-1-26-6.8-26.1-14.3,0-7.6-1-64.3-1-64.3,0-.3,0-2.7,0-6.4,7.4-2.1,15.6-3.1,23.8-2.4,0,0-8,65.2,9.4,66.5,12.4,0,20.2-36.6,16.2-65.2-.3-2.7-2.4-14.8-2.4-14.8,6.9,1.8,14.2,4.3,20.3,7.2v2s-.1,20.5-.1,20.5v5s-.2,31.8-.2,31.8c-.7,8.2-4,13.9-9.7,20.7-2.5,3-3.7,3.3-7.1,7.8.3,1.5,1.7,2,4.1,1.2,13.1-6.2,20.7-10.7,33.8-14.5,7.5-2.3,12.5-2.4,22-4.6,1.6-.4,1.7-2.6,1.3-3.6-9.2-.3-21.9.3-24.4-10.3l-.4-38.4v-4.6c12.1,11.6,18.4,27.5,14.8,47.7,0,0-.3,1.2,1.5,1.4.9.1,1.3,0,1.7-1.1,6.4-28.3-2-48.5-18.1-61.7l-.5-62.4.5-24.2c.8-11.5,6.5-21.3,15.9-27.9ZM66.6,322.7c-38.2-22.4-27.3-55.8,0-71,0,25.7-.1,59.8,0,68.7,0,.8,0,1.6-.2,2.4ZM66.9,243.1s0,0,0,0c0-4,0-7.6.1-11v11ZM104.7,237c-8.4-.9-16.7-.2-24.7,1.7v-11.5c8.6-.9,17.4-1.1,26.2-.3l-1.5,10.1ZM107.5,217.8c-9.2-.3-18.5.3-27.5,1.7,0-22.3,0-48,.4-50.1,6.6,5.1,24.8,35.6,27.2,47.9v.5ZM116,282.1c-.3.4-1.1,1.3-1.7-.3-3.7-7.9-2.3-44.9,1.1-47.9.3-.3.5,0,.7.1,5.6,5,4.5,42.3-.2,48.1ZM147.2,224.4v1.3c-6.6-2.7-15.3-4.9-22.8-6.3,0,0-1.5-5.6-2.6-9.2,3.4-10.6,21-51.3,24-54.1,1,3.1,1.7,63.2,1.4,68.3ZM318.8,305c3.5-1.8,7.1-3.9,10.7-6.3-4.2,9.6-14.1,18.6-28.5,25.5l-.3-4.6c4-1.9,7.6-4.3,10.7-6.8,2.8-2.3,5.3-5,7.4-7.9ZM218.5,280.3c12.1-3.9,20.7-14.6,30-40.4l-3.6-2.3c-2.9,6.6-8.2,19.1-17.1,22-14.3,4.7-17.6-19.3-18-40l38-12.4c-.4-13.1-2.2-55.2-28.5-46.7-17.4,5.6-31.2,33.2-31.3,69.5-.1,42,15.2,55.1,30.5,50.2ZM219.9,168c5.3-1.7,7.2,3.8,8.1,8.9,1.2,7,1.1,19.7,1.3,27.3l-20.2,6.6c.1-33.9,5.3-40.9,10.9-42.8ZM320.3,286.4c1.8,6.8-2.7,16-11.6,23.4-9.6,8-26,14.8-42.1,9.2,13.9-.2,25.9-4.9,31.9-12.7,2.6-3.3,3.9-7,3.9-10.7s-.2-3.3-.7-5c-1-3.3-3.1-5.8-6.3-7.6-6.8-3.7-18-3.4-30.8.8-3.1,1-6.1,2.2-8.9,3.5-.3,0-.7,0-1,.1-8.4,1.3-16.4,3.1-24,5.3,8.4-7,19.7-13.3,34.1-17.9,14.5-4.6,34.2-7.2,46.1-.6,4.8,2.7,8,6.8,9.4,12.1ZM666.5,122.3c-4.5-.2-8.2,3.2-8.2,7.8s3.8,8.2,8.2,8.4c4.4.2,8.2-3.1,8.2-7.8s-3.8-8.2-8.2-8.4ZM666.5,137.2c-3.7-.1-6.6-3.1-6.6-7s2.9-6.6,6.6-6.5c3.7.1,6.6,3.1,6.6,7s-2.9,6.7-6.6,6.6ZM254.2,255.4h0s0,0,0,0h0ZM605.7,63.5c-2.2-27.1,8.8-35.9,24.4-40.3,7.2-2,13.3,1.1,16.1.1,2.7-.9,3.3-4,3.8-6.1l3.3-1.1v35.6c-.1,0-3.9,1.2-3.9,1.2-3.1-16.4-10-24.7-18.6-21.9-5.4,1.8-9.7,9.5-9.7,17.1,0,24.3,37.6,12.6,39.9,46.6,1.4,20.8-8.6,41.3-39,53.9-23.3,9.6-40.4,7.4-43.9-8.5-2.9-13.1,4.9-34.9,29.6-44.1,11-4.1,29.4-5.5,33,10.6,2.9,13-15.9,33.7-32.7,23.3,13.8-1.5,22.7-7.9,19.8-19.6-1.9-8-10.2-7.4-19.8-3.4-15.1,6.3-20.4,19.6-18.3,29.9,2.4,12,21.7,7.9,31.1,3.5,24.4-11.4,27-24.2,25.6-35.1-.5-4.4-4.9-12.1-12.5-15.3-15.6-6.7-27.1-13.8-28.1-26.4ZM330.7,133.1v-5.9s28.4-9.2,28.4-9.2l-.3,83.2c0,6.9,0,17.4,8.4,14.7,5.7-1.9,9.5-9.2,12.4-14.8l.2-69.5c0-13.5-4.2-12.4-9.3-11.4v-5.9s30.4-9.9,30.4-9.9l-.3,91.9c0,9.6,1.6,13.7,8.4,12.9v5.6s-29.4,9.5-29.4,9.5l.2-12.8c-4.4,7.6-11.4,19.9-21.5,23.2-15.4,5-20.5-10.3-20.4-27.7l.2-61.9c0-9.8-1.2-12.4-7.4-12.1ZM222.3,338.5l-3.7,2c-11.2,6.1-21.6,14.6-31,25.5,1.5-10.1,4-18.8,7.5-25.7l2.5-5.1-22.7,1.4c7-18.5,33.6-35.2,68.7-43,2.6-.6,4.9-1.1,6.9-1.5h0c0,0,2.9-.5,2.9-.5.6-.1,1.2-.2,1.9-.3,4.6-.7,8.7-.9,13.8-.6l2.9.2c5.7.4,10.9,1.5,15.3,3.2,2.4,1,4.1,4.4,5.3,6.7l.4,5.3c-6,5.7-16.1,9-27.7,9s-1.3,0-2,0h-2.7c0-.1-1.2,5.3-1.2,5.3l1.8.8c.2,0,.4.2.9.4,1.5.7,3.1,1.2,4.7,1.7.3,0,.6.2,1.2.3,1.3.4,2.7.7,4,.9l1.4.2c1.8.2,3.4.3,5.2.3h0c1.2,0,2.4,0,3.6-.2,4-.3,7.9-1.1,11.7-2.4l.3,4.8c-3.5,1.5-7,2.8-10.8,4-.9.3-2,.6-3.4,1-1.2.3-2.5.7-3.9,1.1-1.1-.3-2.3-.7-3.6-1-1.5-.4-3.1-.7-4.8-1h-.7c-1.3-.3-2.8-.5-4.2-.6h-.4c-.4,0-.8-.1-1.2-.2-1,0-2-.1-3-.2h-2.6c-2.5,0-4.9,0-7.4.3-5.2.6-10.5,1.9-16,3.7-3.5,1.2-7,2.6-10.4,4.3h0ZM585.7,20.3c-1.9-5,0-10.5,4-13.1,4.6-3,9.6-.4,12,5.7,4.3,11.1,1.4,18.6.7,22l-5,3.2c.8-3.9,1.8-6.2-.4-11.9-.7-1.6-2-2.3-3.4-1.5-2.2,1.1-5.9.8-7.9-4.4ZM472.2,122.5c7.9-2.6,10.1-12.6,10.2-17,0-9.6-4.5-10.1-4.5-15.2,0-3.9,3.5-10,8.9-11.7,11.2-3.6,13.2,4.8,13.2,17.3v17.9c-21.6,17.5-40.8,33.6-40.8,59.1,0,18.7,9.3,23.2,16.5,20.9,3.6-1.2,14.2-5.8,24.1-25,.9,6.6,2.1,16.5,12.6,13.1,6.8-2.2,12.4-9.9,16.7-19.4l-2.2-4.4-1.5,2.9c-.4.9-.9,1.3-1.5,1.5-3.3,1.1-3.3-3.6-3.3-5.1l.2-64.1c0-23.1-13.3-29.3-30.1-23.8-18.7,6.1-28.3,24.1-28.3,39.6,0,16.7,8.1,14,9.9,13.5ZM499.7,157.9c-2.1,4.6-5.6,12.4-10.7,14-5.4,1.8-7.7-6.3-7.6-13.9,0-21.4,15-33.3,18.5-35.7v35.6ZM574.1,158.5l-40.1,13v-5.9c4.8-3,8.2-5.1,8.2-17.4l.2-72.2c0-12.3-3.6-12.3-8.1-11.8v-5.9s28.5-9.3,28.5-9.3v19.4c0,0,.2,0,.2,0,3.2-8.6,10-25.6,19.9-28.8,10.3-3.3,12.5,9.2,12.5,15.1,0,6.4-2.2,17.1-9.7,19.6-8.8,2.8-8.6-11.7-13.4-10.1-2.3.7-8.9,8.3-9,26.2l-.2,46.4c0,15,1.8,18.1,11,15.8v5.9ZM514.7,263.9c4.2-.2,18.6-2,28.4-5.8-3.3,2.4-6.6,4.9-10,7.5-10,7.6-18.4,9.2-23.7,9.2h-.9c-6.3-.2-10-2.6-11.4-3.6-.7-.5-1.1-1-1.3-1.2.5-3.5,7.1-5.7,18.9-6.1ZM639.9,194.9l-3.6,3.6,3.9,2.6c7.1,4.5,12.1,9.8,14.7,19.2-11.6-4.4-23.9-4.4-39.7,0-16.5,4.6-35.9,12.1-61.8,30.3.5-.8.8-1.7.9-2.5v-.3c0,0,.2-.2.2-.2l-2.5-44.7c.9-.4,1.7-.9,2.5-1.2.4-.2,38.5-21.6,72.9-21.6s1.8,0,2.7,0c9.7.3,18.2,2.4,25.3,6.2l-5.2,1.9c-5.5,2.6-7,4.2-10.4,6.7ZM532.1,193.9c-4.3-.1-9.1,0-12.6.3-14.3.8-94.7,24.7-163.8,84-.7,10.4-4.6,20.8-11.3,30-9.2,12.6-23.4,23.2-42.4,31.6l1,13.7-.2.6c0,2.3-.9,4.6-2.6,6.3-1,.9-2.1,1.6-3.4,2.1,4.1-1.4,8.7-3.1,13.6-5.2,26.3-11.1,37.4-19.7,57.5-35.3l.5-.4c6.9-5.3,14.5-11.2,23.9-18.2,13.1-10.9,62.5-41.4,85.9-51,5.7-2.3,11.3-4.4,16.7-6.2,13.3-5.1,28.2-8,40.5-7.6,2.5,0,4.8.3,6.8.7,2.1.4,3.9.8,5.3,1.3l-2.4-42.3c-.4-3.4-7.4-4.3-13.2-4.5ZM377.6,305.6c-2.3,1.9-4.5,3.3-6.5,4.1-1.1.5-2,.8-3,1-.5,0-.9.1-1.4.2h-.5c.9-3.7,1.9-7.2,2.8-10.6,3.1.2,6.4-1,9.3-3.2,1.8-1.4,2.6-2.9,2.5-4.7,0-1.1-.7-1.7-1.7-1.7s-2.1.4-3.7,1c-1.9.7-3.8,1.4-5.3,1.4s-3.5-.7-3.8-5.9c0-.5,0-1,0-1.5v-1.5c0-.2,0-.5.1-.7v-.7c.1-.5.2-1,.3-1.5.3-1.9.9-3.7,1.7-5.5,1.6-3.4,3.9-6.3,6.8-8.5,3.3-2.5,6.7-3.7,9.7-3.5-.6,3-1.2,6.1-1.8,9.1h-.2c-2.8,0-5.7.9-7.6,2.4-1.5,1.1-2.4,2.7-2.2,4.2,0,1.1.8,1.7,1.9,1.7s2.2-.4,3.7-.8c2.2-.7,3.7-1,4.9-1,1.9,0,4,.7,4.3,5.5v.2c.5,7.5-3,14.8-10.1,20.5ZM388,265.5c1.8-1.4,3.6-2.8,5.3-4.2.3,1.9.6,3.8.9,5.8-1.8,1.4-3.6,2.7-5.4,4.1-.3-1.9-.5-3.8-.8-5.7ZM391.1,295.4c-.3-7.5-1-14.9-1.9-22.2,1.7-1.3,3.5-2.6,5.2-3.9,1,7.4,1.8,14.9,2.2,22.3-1.8,1.2-3.6,2.5-5.5,3.8ZM409.4,282.8c-.4-4.1-.8-8.3-1.4-12.4-.3-2.5-1.4-3.3-2.6-2.3-1.2.9-2,3-1.6,5.4.5,4.1.9,8.2,1.2,12.3-1.8,1.2-3.6,2.4-5.4,3.7-.5-7.5-1.3-15-2.4-22.4,1.7-1.3,3.4-2.6,5.1-4,.2,1.1.3,2.1.5,3.2.7-2.6,1.7-5.5,3.8-7.1,3-2.4,5.4-.6,6.2,4.8.7,5.1,1.4,10.2,1.9,15.2-1.7,1.2-3.5,2.4-5.3,3.6ZM424.5,273.1c-4.4,3-8.3-.3-9.2-6.9h0c-.9-6.8,1.4-14.9,6-18.4,3-2.3,5.3-1.5,7.1.9-1,2.3-2,4.6-2.9,6.8-.9-1.1-1.9-1.5-3.1-.6-1.6,1.2-2.5,4.5-2.1,7.4,0,0,0,0,0,0,.4,3.1,1.9,4.6,3.6,3.4,1.2-.8,1.9-2.3,2.5-4.5,1.3.6,2.7,1.2,4,1.8-.9,4.2-2.6,7.7-5.9,9.9ZM440.2,262.8c-4.7,2.9-8.5,0-9.6-7.6,0,0,0,0,0,0-1-7.2,1.4-15.2,6-18,5.4-3.4,8.5,1.5,9.3,9,0,.6.1,1.2.2,1.8-3.4,2-6.8,4.1-10.2,6.3.8,2.4,2.1,3,3.7,2,1.2-.8,2.2-2.2,3-4.6,1.1.8,2.3,1.5,3.4,2.3-1.1,3.9-3,7.2-6,9ZM460.8,251.9v-1.1c-.7-8.3-1.4-15.4-1.8-23.4-1.2,1-2.4,1.9-3.5,2.9-.5-2.1-1.1-4.2-1.6-6.3,2.1-1.9,4.2-3.7,6.3-5.5,1.5-.6,3-1.3,4.5-1.8.2,10.4.9,21.5,1.7,32.6-1.9.8-3.8,1.7-5.7,2.6ZM487.3,224.5c.1,10.5-3.2,19-9.7,21.4-3.2,1.2-5.6.5-7.7-1,.8-2.5,1.6-5,2.4-7.4,1.6,1.2,3.1,1.5,4.8.9,2.5-.9,3.8-4,3.9-8.3-1.1,2-2.6,3.6-4.6,4.3-4.3,1.6-7.6-1.2-7.8-7.5h0c-.3-7.3,3.6-13.1,8.8-14.7,3.4-1.1,5.3-.4,7.1,1.4,1.7,1.7,2.8,4.9,2.8,10.9h0ZM511.3,218.3c0,9.1-4.1,17.8-10.7,19.3-6.4,1.5-10.6-5.2-10.7-14.3h0c-.1-9.3,4.2-17.6,10.7-19.1,6.6-1.6,10.6,4.7,10.6,14h0ZM524.4,232.7c-2.1.3-4.2.6-6.4.9,0-8.4.1-16.6,0-24.6-1.3.7-2.6,1.3-3.9,2-.4-2.2-.8-4.4-1.2-6.5,2.3-1.3,4.5-2.6,6.7-3.9,1.5-.3,3.1-.6,4.6-.9.2,10.6.3,21.6.1,33ZM670.3,128.5c0-1.9-1.1-2.7-3.3-2.8h-3.6c0-.1,0,9.2,0,9.2h1.4s0-4,0-4h1.6s2.5,4.2,2.5,4.2h1.6c0,0-2.7-4.2-2.7-4.2,1.4-.1,2.4-.8,2.4-2.5ZM666.5,129.8h-1.7v-3h1.9c1,0,2,.3,2,1.5s-1.1,1.5-2.3,1.4ZM541.4,245.8c3.8.7,5.6,1.4,6.3,1.8-.3.4-.9,1-2.1,1.9-5.9,4.5-24.8,7.7-31.3,7.9-8.7.4-14.9,1.6-19,3.9l.3-8.2c13.1-5.3,27.8-8.3,39.8-7.9,2.2,0,4.3.3,6,.6ZM440.6,246.3c-1.8,1.1-3.5,2.2-5.3,3.4,0-2.9.7-5.3,2.1-6.2,1.5-.9,2.7.2,3.2,2.9ZM504.9,219.6h0c0,5.2-1.6,9.3-4.2,9.9-2.6.6-4.3-2.8-4.3-7.9h0c0-5.3,1.7-9.2,4.2-9.8,2.6-.6,4.3,2.6,4.3,7.8ZM293.7,343.5l3.7-1.4v4.7c-.1,0-3.7-3.3-3.7-3.3ZM257.1,335.7c3.3,0,6.6.4,9.9.9-3.5.6-6.8,1.1-9.9,1.4v-2.3ZM349.8,263.2c-3.3-12.2-9.5-21-18.5-26.2-9.5-5.5-22.5-6.7-35.1-3.2l-7.7,1.3-2.2.7c-5.5,1.5-8.7,1.2-10.4-.8-.8-1-1.2-2.4-1.2-4.3,0-7.5,7.5-14.9,10.7-16,8.9-3.1,10.9-4.7,13.6-7.3,10.4-9.6,16.3-23.1,16.8-38.2.4-14.2-3.6-19.5-5.2-21.5l-.4-.6.6-.3,12-4.2.4-11.7-19,6.6c-2.6-.7-4.8-1-6.9-1.1-3.1-.1-6.2.4-9.6,1.6-21.2,7.4-31.4,30.6-32,49-.4,14.5,4.3,24.7,13.3,28.8l.8.4-.7.5c-6.8,5.6-14.4,21.2-14.7,35.4,0,1.1.1,2.3.3,3.4v.3s0,0,0,0c1.2,6.5,4.9,10.1,10.1,9.8,3-.6,8.6-2.1,15.2-4.7h0s.3-.2.3-.2c17.5-5.5,31.3-5.7,40.6-.5,7,3.9,11.7,10.6,14.4,20.5,4.6,17.1-6.1,40.5-50,54.8-6.1,2-21.9,6.6-35.8,6.1-6-.2-11-1.3-14.9-3.4-4,1.4-8.4,3.3-12.8,5.6.7.5,1.5,1.1,2.3,1.6,11.8,6.6,32.4,5.3,60.5-3.8,58.5-19,71.6-54.1,65-78.3ZM275.9,180.4c.5-15.3,1.7-32.1,11-35.3,10-3.5,9.4,17.4,9.1,28.3-.4,13.8-1.4,31.5-11,34.8-9,3.1-9.6-11.1-9.1-27.8ZM295.9,362.8c-13.6,4.4-22.7,5.2-28.5,4.9-4.4-.1-7.3-.9-8.9-1.7.8-2.7,3.2-5.1,10.9-4.8,2.7,0,5.7.5,8,.8l2.2.3c3.1.5,6.4,1,9.5,1,2.7,0,4.9-.1,6.7-.6ZM296.3,354.8c-.1.4-.3.7-.5.8-.9.9-2.8,1.3-5.6,1.3h-.9c-2.9-.1-6.2-.6-9.2-1.1l-1.9-.3c-2.5-.4-5.4-.8-8.4-.9-4.9-.2-8.8.6-11.7,2.2v-4.3c.7-.1,1.6-.3,2.5-.4,1.9-.3,3.9-.7,6-1.2,1.9-.4,3.8-.8,5.8-1.3l1.9-.5c1.5-.4,3-.8,4.6-1.2,2.4-.7,4.8-1.4,7.3-2.2.4-.1.7-.2,1.2-.4,4.5,3,7.6,6.4,8.8,9.4ZM481,222h0c0,2.4-1.1,4.6-3.1,5.3-2,.7-3.3-.7-3.3-3.1,0,0,0,0,0,0,0-2.5,1.1-4.7,3.1-5.3,2-.7,3.3.8,3.3,3.2ZM402.3,74.2c-.2-.5,0-1.1.6-1.3l24.4-10.8-11.6-9.8c-.4-.4-.5-1-.2-1.4.3-.5.9-.6,1.4-.4l13.8,7.2,2.7-25.3c0-.5.5-1,1.1-1h0c.5,0,1,.4,1.1,1l2.6,22.5,13.5-16c.4-.4,1-.5,1.5-.2.5.3.6,1,.2,1.5l-11.4,17.1,28.5-6.8c.5-.1,1.1.2,1.3.7.2.5,0,1.1-.6,1.3l-29.5,12.5,11.5,9.7c.4.4.5,1,.2,1.4-.3.5-.9.6-1.4.4l-13.7-7.2-2.5,22.9h.4c0-.1,11.9-4,11.9-4l-.3,93.3c0,7.6,1.2,12.6,7.1,11.7v5.9s-36.1,11.7-36.1,11.7v-5.9c5.5-4,8-5.5,8.1-17.3l.2-72.2c0-11-2.2-12-7.9-11.9v-5.9s13.4-4.4,13.4-4.4l.7-.2-2.4-20.9-13.5,16c-.4.4-1,.5-1.5.2-.5-.3-.6-1-.2-1.5l11.4-17.2-23.3,5.1c-.5.1-1.1-.2-1.2-.7Z"/>
    </g>
  </g>
</svg>