<svg role="img" aria-label="RC Drift Japan" viewBox="0 0 540 130" xmlns="http://www.w3.org/2000/svg" fill="#ffffff" preserveAspectRatio="xMidYMid meet" shape-rendering="geometricPrecision"><path d="M522.15499,33.09188c-1.22724.31672-2.65334.29593-3.92986.23953-.166-.00736-.1683-.20856-.00535-.24557.26749-.06074.69628-.1012.9581-.17361.48277-.13342.46793-.6497.09264-.82862-.24368-.11617-.40984-.1109-.62898-.22248-9.01833-3.33559-12.63158-12.61268-16.35457-20.68859-.3629-.53048-1.2453-.97632-1.79677-1.08468-6.19098-1.21682-11.55796,14.73068-19.0238,17.77408-.09324.04256-.15072.08109-.2613.12107-.43165.15599-.87403.0928-1.3218-.01967-.79298-.19911-1.68748-.16842-2.42447.04694-.36204.10579-.74163.21974-.95733.34673-2.2108,1.30141-3.64089,3.33937-5.17797,5.27133-.91902,1.15512-2.68488,2.40512-2.68854,3.92696h15.73705c5.60555,0,10.42332,1.72996,13.93239,5.00288,1.84701,1.72264,3.26584,3.81293,4.2171,6.2127.07019.17711.13676.3561.2016.53607.19706-.06709.41375-.17204.65565-.32569,1.60012-1.01646,2.10614-3.97692,3.38655-5.44868,2.32958-2.71678,4.12414-2.89107,7.33073-1.90558.87769.26974,1.29936.64672,2.1077.72524,4.17048.40502,6.11029-2.04946,7.574-5.62579.51917-1.14558,1.15532-2.19817,1.22225-3.47544-.59359-1.09752-1.8627-.41266-2.84501-.15913Z"></path><path d="M89.80982,102.92475c-3.10274,0-4.99882-.25856-6.464-1.89611l-23.18416-26.97631c-.25852-.34478-.43089-.68952-.43089-1.12045s.08615-.77567.43089-1.37896l.7757-1.80993c.60333-1.03422,1.37896-1.72374,2.67178-1.72374h23.01179c9.73904,0,14.13453-4.82641,14.13453-11.20423,0-3.44745-2.67178-4.74026-7.15341-4.74026h-30.59624l-21.89134,49.12625c-.51711,1.12045-1.37896,1.72374-2.49941,1.72374h-22.40846c-.86185,0-1.20659-.34474-1.20659-.86185,0-.25856.08622-.51715.17237-.86189l24.47698-54.81455c.68948-1.46515,1.63748-2.24082,3.18889-2.24082h72.4827c7.49823,0,12.1523,3.96456,12.1523,10.42852,0,12.32467-12.58319,21.20186-26.20068,21.20186h-12.3246l25.33875,24.82168c.17237.17237.25859.6033.25859.77567,0,.51715-.51711,1.55137-1.89615,1.55137h-22.83934Z"></path><path d="M140.83251,102.92475c-11.11808,0-17.40964-7.6706-17.40964-18.27153,0-20.08142,21.37416-40.50758,43.61032-40.50758h56.79677c.86193,0,1.20667.25856,1.20667.77567,0,.34474-.08622.68948-.25859,1.03422l-1.89607,4.39552c-.51711,1.12041-1.37896,1.7237-2.58563,1.7237h-41.71417c-9.30815,0-27.06253,17.8406-27.06253,33.35417,0,6.55015,2.75793,9.48049,7.92912,9.48049h41.97276c.86185,0,1.29282.34474,1.29282.94804,0,.25859-.08615.51715-.25859.94807l-1.98222,4.39548c-.51711,1.12045-1.37904,1.72374-2.58563,1.72374h-57.05536Z"></path><path d="M207.3684,102.92475c-1.03422,0-1.46519-.34474-1.46519-1.03422,0-.25856.08615-.60333.25852-1.03426l24.39083-54.55595c.60326-1.379,1.55133-2.15467,2.9303-2.15467h66.88063c11.46282,0,17.49586,7.6706,17.49586,18.09912,0,20.94331-22.58083,40.67998-43.69647,40.67998h-66.79448ZM253.90901,52.07476l-19.13334,42.83465h27.92438c9.3943,0,27.40727-19.73668,27.40727-33.78505,0-6.37782-2.58563-9.0496-8.27393-9.0496h-27.92438Z"></path><g><circle cx="383.84846" cy="44.14565" r="14.1276"></circle><path d="M360.09137,79.74064c-4.48171,10.08375-10.42861,15.16876-19.39195,15.16876h-31.02712c-1.12044,0-1.9823.60332-2.49941,1.89613l-1.9823,4.39549c-.17237.34472-.25852.60332-.25852.86188,0,.51712.34474.86184,1.20659.86184h47.83342c16.5478,0,28.87247-10.16999,35.16403-24.30454l4.79843-10.76096c1.07726-2.41587-.69081-5.14016-3.33598-5.14016h-20.57677c-1.4441,0-2.75262.85082-3.3385,2.17073l-6.59194,14.85084Z"></path></g><path d="M428.00607,82.15382c-.86185,0-1.20659-.25856-1.20659-.77567,0-.34474,0-.6033.17237-.94804l1.9823-4.39552c.60333-1.20659,1.46519-1.80989,2.67178-1.80989h21.37423c9.48045,0,17.92675-5.77452,17.92675-15.25501,0-4.39552-3.01652-6.89493-7.58437-6.89493h-29.47579l-21.89134,49.12625c-.60326,1.12045-1.37896,1.72374-2.58556,1.72374h-22.40846c-.86185,0-1.20659-.34474-1.20659-.86185,0-.25856.08615-.51715.25852-.86189l24.47698-54.90069c.60326-1.379,1.55133-2.15467,2.9303-2.15467h70.93144c7.92912,0,12.92793,4.56785,12.92793,12.15227,0,15.59975-15.59979,25.8559-32.06135,25.8559h-37.23254Z"></path><g><path d="M490.00168,86.60412c-.23756-1.60209-.58735-3.13386-2.13763-3.84856-.01211-.00559-.02434-.01014-.03648-.01553-2.65298,1.57148-5.5416,2.8601-8.63137,3.84595-4.48807,1.43202-9.18409,2.15814-13.95759,2.15814h-36.69581c.09469.56382.28561,1.07318.54407,1.5434.78509.48607,1.47639,1.0334,2.0813,1.55301,1.14788.98601,2.00123,2.09757,2.75415,3.07827.50157.65332.97531,1.2704,1.36281,1.61339l.2546.22534.22137.25808c.30979.36121.76983.74692,1.30256,1.19353.2552.21395.53126.44621.81756.69865.75426-.3802,1.43065-.53072,1.77674-.60763.0292-.00648.05843-.01271.0857-.01927.67285-.16584,1.4037-.49246,2.24996-.87065.97572-.43603,2.08164-.93026,3.39109-1.31022,2.2715-.65907,4.74476-1.00741,7.15243-1.00741.47971,0,.96105.01404,1.43077.04171,2.15064.12691,6.2891.58245,9.84228,2.20782,3.47689,1.59054,4.31868,4.26734,4.51101,5.7214.03857.29167.05716.57589.06195.85464,4.07708,2.36128,11.29471-2.41007,14.9172-4.05145.35462-.16066.57175-.25514.79905-.50377.22727-.24863.30816-.58337.12494-.85625-.30035-.44729-.99514-.40759-1.24353-.89949-.09517-.18849-.07007-.37288-.00117-.58522,1.71206-5.27736,8.12109-3.00591,7.02205-10.41789Z"></path><path d="M446.70405,111.74126c.15762,0,.31697-.00189.47845-.00511.55543-.01102,1.08324-.13021,1.66596-.37823,1.40436-.59769,2.71193-1.14767,4.13482-1.14767.55159,0,1.1203.08258,1.719.27706,1.05184.32449,2.00079.70891,2.9979.70891.5025,0,1.01709-.09754,1.56351-.34959,1.9663-.90697,2.97622-2.60318,3.67107-4.62115.64425-1.87094,1.04629-3.36982-1.18074-4.38857-2.30778-1.05568-5.41885-1.61158-8.07723-1.76841-.37668-.0222-.75726-.03314-1.13967-.03314-1.9564,0-3.96385.28611-5.7751.81164-2.02122.58647-3.64772,1.64665-5.63466,2.17938,1.20717,2.48155,1.58807,5.02516,1.11578,7.42976.18754.1658.39297.31528.61656.4423,1.22704.6972,2.46564.84282,3.84434.84282Z"></path><path d="M436.60574,105.02721c-.46425-.91224-1.09906-1.60261-1.78917-2.22966-.92747-.84274-1.95523-1.57059-2.80734-2.56413-1.50688-1.33371-2.56314-3.35622-4.06175-4.64351-1.17545-1.00971-2.40675-1.86511-3.86025-1.86511-.39961,0-.81577.0646-1.25246.2084-.17302.057-.33571.12482-.49373.19754l-4.34596,9.75274-.10024.22493-.11673.21685c-.8075,1.49972-1.85652,2.70302-3.11799,3.57633-1.52472,1.05556-3.34715,1.61347-5.27029,1.61347h-6.59269c-3.16079,1.95598-1.86845,4.16038,2.49418,5.57941.01152.00374.05867.01219.0759.01617,2.84033.65404,5.91049,1.61323,8.47927,2.76959,1.14838.51696,2.31781,1.15073,3.2517,1.41299,1.57757.44303,3.0546.68502,4.46888.68502,2.19783,0,4.24503-.58381,6.28958-1.90465,1.17362-.75822,1.83885-1.5823,2.7956-2.28956,1.12831-.83409,2.16947-1.21682,3.2883-1.87702,1.30236-.76848,2.2539-1.70152,2.84358-2.75282.99706-1.77754.95822-3.89357-.17839-6.12698Z"></path><path d="M438.00299,99.01543c-.04095-.0366-.08125-.07188-.12178-.10764-.02084.01054-.04189.02176-.06285.03262.06054.02667.12196.05201.18463.07502Z"></path></g></svg>