<?xml version="1.0" encoding="UTF-8"?>
<svg xmlns="http://www.w3.org/2000/svg" version="1.1" viewBox="0 0 653.4 84.5">
  <defs>
    <style>
      .cls-1 {
        fill: #fff;
      }

      .cls-2 {
        fill: #fff;
      }
    </style>
  </defs>
  <!-- Generator: Adobe Illustrator 28.7.4, SVG Export Plug-In . SVG Version: 1.2.0 Build 166)  -->
  <g>
    <g id="Layer_1">
      <g>
        <path class="cls-1" d="M6.5,35.3C3,35.3.1,37.8,0,41c-.1,3.2,2.6,5.8,6.1,5.8s6.4-2.5,6.5-5.8c.1-3.2-2.5-5.7-6.1-5.7ZM6.2,45.6c-2.8,0-4.7-2-4.6-4.6,0-2.5,2.2-4.6,4.9-4.6s4.7,2.1,4.6,4.6c0,2.5-2.1,4.5-4.8,4.5ZM7.8,41.2h0c.8-.3,1.3-.8,1.3-1.4,0-.6-.2-1-.6-1.3-.4-.2-1-.4-2.1-.4s-1.8,0-2.4.2l-.2,5.7h1.4v-2.3h.8c.8,0,1.2.3,1.2.9.2.7.3,1.2.4,1.4h1.5c-.1-.2-.2-.6-.4-1.4-.2-.8-.5-1.2-1.1-1.4ZM6.1,40.8h-.7v-1.6c.2,0,.5,0,.8,0,.9,0,1.3.3,1.3.9,0,.6-.7.8-1.5.8ZM92.9,14.7l-11.7,33.4c-1.2,3.6-4.6,5.9-8.4,5.9h-11.1s7.8,30.6,7.8,30.6h-28.5l-9.8-30.6H14.4s7.5-21.7,7.5-21.7h38.1l3.3-9.6H16.2L3.5,0h79c7.6,0,12.9,7.5,10.4,14.7ZM613.5,52.3l-9.3,26.9c-.2.6-.7,1.3-1.4,1.9s-1.5,1.2-2.3,1.7c-.9.5-1.7.9-2.6,1.2s-1.7.5-2.3.5h-20.1c-.7,0-1.3-.2-2-.5s-1.3-.7-1.8-1.2c-.5-.5-.9-1.1-1.1-1.7-.2-.6-.2-1.3,0-1.9l9.3-26.9h10.1l-8.2,23.7h13.6l8.2-23.7h10ZM636.6,68.2l5.5,16.3h-11.8l-4.8-11.7h-5.5l-4.1,11.7h-10.1l11.3-32.3h10.1l-4.3,12.3h5.4l13.2-12.3h11.9l-16.8,16ZM557.8,75.9h10.2l-3,8.7h-10.2l3-8.7ZM120.9,0h87l-27.3,24h-55.3l-13.1,38h58.3l-7.8,22.6h-72.2c-6.1,0-10.4-6-8.4-11.8l20.7-59.8c2.7-7.7,10-12.9,18.2-12.9Z"/>
        <path class="cls-2" d="M610.7,0l-27.3,24h-18.1l-20.9,60.5h-27.6l20.9-60.5h-29l27.3-24h74.7ZM460.1,24h36.3l27.3-24h-68.1c-8.2,0-15.5,5.2-18.2,12.9l-24.9,71.6h26.6l10.1-29.2h44l22.7-21.7h-59.3l3.3-9.7ZM403.8,0l-29.6,84.5h27.1L430.6,0h-26.9ZM275.5,0h-54.3l-27.3,23.9h0c0,0,0,0,0,0h62.2l-13.1,38h-35.8l9.8-28.3h-26.4s-17.6,50.9-17.6,50.9h82.4c3.8,0,7.1-2.4,8.4-6l22.1-63.9c2.5-7.2-2.8-14.6-10.4-14.6ZM379.2,0h-65.3c-8.2,0-15.5,5.2-18.2,13l-24.7,71.6h26.6l21.4-62h41l-3.3,9.6h-33.3s-7.5,21.7-7.5,21.7h12c0,0,9.8,30.7,9.8,30.7h28.5l-7.9-30.6h11.1c3.8,0,7.1-2.4,8.4-5.9l11.7-33.3c2.5-7.2-2.8-14.7-10.4-14.7Z"/>
      </g>
    </g>
    <metadata>
      <sfw xmlns="http://ns.adobe.com/SaveForWeb/1.0/">
        <slices/>
        <sliceSourceBounds x="0" y="-84.55" width="653.37" height="84.55" bottomLeftOrigin="true"/>
      </sfw>
    </metadata>
  </g>
</svg>