<?xml version="1.0" encoding="utf-8"?>
<!-- Generator: Adobe Illustrator 27.0.0, SVG Export Plug-In . SVG Version: 6.00 Build 0)  -->
<svg version="1.1" id="Layer_1" xmlns="http://www.w3.org/2000/svg" xmlns:xlink="http://www.w3.org/1999/xlink" x="0px" y="0px"
	 viewBox="0 0 751.5 170.73" style="enable-background:new 0 0 751.5 170.73;" xml:space="preserve">
<style type="text/css">
	.st0{fill:#FFFFFF;}
	.st1{fill:#F20C4E;}
</style>
<g>
	<path class="st0" d="M35.33,2.37h38.18c20.16,0,32.01,9.48,32.01,28.45c0,4.03-0.47,8.06-1.42,12.8l-1.66,8.06
		c-4.03,19.44-10.91,30.11-24.66,33.67v0.24c8.3,2.85,12.09,10.2,12.09,20.63c0,4.27-0.47,8.77-1.66,13.75l-6.17,29.17
		c-1.19,5.93-2.37,10.91-2.37,14.94c0,1.42,0.24,2.84,0.47,4.27H54.3c-0.24-2.13-0.47-4.03-0.47-6.17c0-3.08,0.47-7.35,2.13-15.18
		l6.4-30.35c0.95-4.03,1.42-7.35,1.42-9.96c0-7.35-3.79-9.48-12.57-9.48h-9.48l-15.18,71.14H0L35.33,2.37z M54.54,73.51
		c9.72,0,17.07-4.03,20.39-18.5l2.85-12.8c0.71-3.08,0.95-5.45,0.95-7.59c0-6.17-3.08-8.54-9.96-8.54H56.91l-10.2,47.42H54.54z
		 M101.01,138.48c0-3.79,0.47-7.83,1.42-12.33l19.21-89.63C126.62,13.28,140.85,0,162.43,0c24.66,0,36.99,12.09,36.99,32.01
		c0,3.79-0.47,8.3-1.42,12.57l-2.85,13.75h-25.13l3.79-18.02c0.47-1.9,0.71-3.79,0.71-5.45c0-7.59-4.98-11.14-12.57-11.14
		c-6.88,0-11.86,4.27-13.99,13.99l-19.92,92.71c-0.47,1.9-0.71,3.79-0.71,5.22c0,8.06,5.22,11.38,12.57,11.38
		c6.88,0,12.57-4.03,14.46-13.52l5.22-25.85h24.9l-5.45,26.56c-4.98,23.95-18.97,36.52-40.55,36.52
		C113.58,170.73,101.01,158.63,101.01,138.48z M259.64,2.37h38.41c21.82,0,33.43,10.67,33.43,29.64c0,3.79-0.47,7.82-1.42,12.33
		l-17.78,83.94c-5.69,26.56-19.21,40.07-45.29,40.07h-42.68L259.64,2.37z M267.7,144.64c8.3,0,15.18-5.22,17.78-17.07l18.5-86.31
		c0.47-2.61,0.71-4.74,0.71-6.4c0-6.64-3.32-8.77-9.96-8.77h-13.52l-25.13,118.56H267.7z M356.62,2.37h38.18
		c20.16,0,32.01,9.48,32.01,28.45c0,4.03-0.47,8.06-1.42,12.8l-1.66,8.06c-4.03,19.44-10.91,30.11-24.66,33.67v0.24
		c8.3,2.85,12.09,10.2,12.09,20.63c0,4.27-0.47,8.77-1.66,13.75l-6.17,29.17c-1.19,5.93-2.37,10.91-2.37,14.94
		c0,1.42,0.24,2.84,0.47,4.27h-25.85c-0.24-2.13-0.47-4.03-0.47-6.17c0-3.08,0.47-7.35,2.13-15.18l6.4-30.35
		c0.95-4.03,1.42-7.35,1.42-9.96c0-7.35-3.79-9.48-12.57-9.48h-9.48l-15.18,71.14h-26.56L356.62,2.37z M375.83,73.51
		c9.72,0,17.07-4.03,20.39-18.5l2.85-12.8c0.71-3.08,0.95-5.45,0.95-7.59c0-6.17-3.08-8.54-9.96-8.54H378.2L368,73.51H375.83z
		 M452.65,2.37h26.56l-35.33,165.98h-26.56L452.65,2.37z M498.65,2.37h69l-5.22,23.71h-42.21l-9.72,46.24h32.96l-4.98,23.71h-32.96
		l-15.41,72.32h-26.79L498.65,2.37z M597.76,26.08h-27.27l5.22-23.71h81.1l-5.22,23.71h-27.27L594.2,168.36h-26.56L597.76,26.08z"/>
	<path class="st1" d="M628.71,155.88h12.47l-2.61,12.47H626.1L628.71,155.88z M650.93,153.84c0-1.93,0.23-3.97,0.68-6.12
		l12.59-58.73h12.7l-13.04,61c-0.23,1.02-0.34,1.93-0.34,2.72c0,4.08,2.38,5.44,6.24,5.44c3.4,0,5.67-1.81,6.69-6.92l13.27-62.25
		h12.25l-13.38,62.7c-2.38,11.45-9.07,17.8-19.62,17.8C658.07,169.49,650.93,164.27,650.93,153.84z M730.07,118.81l4.54,49.55
		h-12.59l-3.06-34.13l-7.6,10.55l-4.99,23.58h-12.7l16.89-79.37h12.7l-6.92,32.54l21.54-32.54h13.61L730.07,118.81z"/>
</g>
</svg>
